<mxfile host="65bd71144e">
    <diagram id="EQwPjUYLHKWZq_4sfKHj" name="Page-1">
        <mxGraphModel dx="743" dy="642" grid="1" gridSize="10" guides="1" tooltips="1" connect="1" arrows="1" fold="1" page="1" pageScale="1" pageWidth="850" pageHeight="1100" background="#ffffff" math="0" shadow="0">
            <root>
                <mxCell id="0"/>
                <mxCell id="1" parent="0"/>
                <mxCell id="19" value="" style="shape=table;html=1;whiteSpace=wrap;startSize=0;container=1;collapsible=0;childLayout=tableLayout;strokeColor=#000000;strokeWidth=2;fillColor=#FFFFFF;fontColor=#000000;fontSize=13;fontStyle=1;verticalAlign=middle;" parent="1" vertex="1">
                    <mxGeometry x="405" y="40" width="270" height="160" as="geometry"/>
                </mxCell>
                <mxCell id="20" value="" style="shape=tableRow;horizontal=0;startSize=0;swimlaneHead=0;swimlaneBody=0;top=0;left=0;bottom=0;right=0;collapsible=0;dropTarget=0;fillColor=none;points=[[0,0.5],[1,0.5]];portConstraint=eastwest;strokeColor=#000000;strokeWidth=2;fontColor=#000000;fontSize=13;fontStyle=1;verticalAlign=middle;" parent="19" vertex="1">
                    <mxGeometry width="270" height="53" as="geometry"/>
                </mxCell>
                <mxCell id="21" value="remove" style="shape=partialRectangle;html=1;whiteSpace=wrap;connectable=0;fillColor=#66FFFF;top=0;left=0;bottom=0;right=0;overflow=hidden;strokeColor=#66FFFF;strokeWidth=2;fontColor=#000000;fontSize=13;fontStyle=1;verticalAlign=middle;" parent="20" vertex="1">
                    <mxGeometry width="90" height="53" as="geometry">
                        <mxRectangle width="90" height="53" as="alternateBounds"/>
                    </mxGeometry>
                </mxCell>
                <mxCell id="22" value="pop_front" style="shape=partialRectangle;html=1;whiteSpace=wrap;connectable=0;fillColor=#66FFFF;top=0;left=0;bottom=0;right=0;overflow=hidden;strokeColor=#000000;strokeWidth=2;fontColor=#000000;fontSize=13;fontStyle=1;verticalAlign=middle;" parent="20" vertex="1">
                    <mxGeometry x="90" width="90" height="53" as="geometry">
                        <mxRectangle width="90" height="53" as="alternateBounds"/>
                    </mxGeometry>
                </mxCell>
                <mxCell id="23" value="pop_back" style="shape=partialRectangle;html=1;whiteSpace=wrap;connectable=0;fillColor=#66FFFF;top=0;left=0;bottom=0;right=0;overflow=hidden;strokeColor=#000000;strokeWidth=3;fontColor=#000000;fontSize=13;fontStyle=1;verticalAlign=middle;fillStyle=auto;perimeterSpacing=1;labelBorderColor=none;" parent="20" vertex="1">
                    <mxGeometry x="180" width="90" height="53" as="geometry">
                        <mxRectangle width="90" height="53" as="alternateBounds"/>
                    </mxGeometry>
                </mxCell>
                <mxCell id="24" value="" style="shape=tableRow;horizontal=0;startSize=0;swimlaneHead=0;swimlaneBody=0;top=0;left=0;bottom=0;right=0;collapsible=0;dropTarget=0;fillColor=none;points=[[0,0.5],[1,0.5]];portConstraint=eastwest;strokeColor=#000000;strokeWidth=2;fontColor=#000000;fontSize=13;fontStyle=1;verticalAlign=middle;" parent="19" vertex="1">
                    <mxGeometry y="53" width="270" height="54" as="geometry"/>
                </mxCell>
                <mxCell id="25" value="Θ(n)" style="shape=partialRectangle;html=1;whiteSpace=wrap;connectable=0;fillColor=none;top=0;left=0;bottom=0;right=0;overflow=hidden;strokeColor=#000000;strokeWidth=2;fontColor=#000000;fontSize=13;fontStyle=1;verticalAlign=middle;" parent="24" vertex="1">
                    <mxGeometry width="90" height="54" as="geometry">
                        <mxRectangle width="90" height="54" as="alternateBounds"/>
                    </mxGeometry>
                </mxCell>
                <mxCell id="26" value="Θ(n)" style="shape=partialRectangle;html=1;whiteSpace=wrap;connectable=0;fillColor=none;top=0;left=0;bottom=0;right=0;overflow=hidden;strokeColor=#000000;strokeWidth=2;fontColor=#000000;fontSize=13;fontStyle=1;verticalAlign=middle;" parent="24" vertex="1">
                    <mxGeometry x="90" width="90" height="54" as="geometry">
                        <mxRectangle width="90" height="54" as="alternateBounds"/>
                    </mxGeometry>
                </mxCell>
                <mxCell id="27" value="Θ(1)" style="shape=partialRectangle;html=1;whiteSpace=wrap;connectable=0;fillColor=none;top=0;left=0;bottom=0;right=0;overflow=hidden;strokeColor=#000000;strokeWidth=2;fontColor=#000000;fontSize=13;fontStyle=1;verticalAlign=middle;" parent="24" vertex="1">
                    <mxGeometry x="180" width="90" height="54" as="geometry">
                        <mxRectangle width="90" height="54" as="alternateBounds"/>
                    </mxGeometry>
                </mxCell>
                <mxCell id="28" value="" style="shape=tableRow;horizontal=0;startSize=0;swimlaneHead=0;swimlaneBody=0;top=0;left=0;bottom=0;right=0;collapsible=0;dropTarget=0;fillColor=none;points=[[0,0.5],[1,0.5]];portConstraint=eastwest;strokeColor=#000000;strokeWidth=2;fontColor=#000000;fontSize=13;fontStyle=1;verticalAlign=middle;" parent="19" vertex="1">
                    <mxGeometry y="107" width="270" height="53" as="geometry"/>
                </mxCell>
                <mxCell id="29" value="Θ(n)" style="shape=partialRectangle;html=1;whiteSpace=wrap;connectable=0;fillColor=#C9FDFF;top=0;left=0;bottom=0;right=0;overflow=hidden;strokeColor=#000000;strokeWidth=2;fontColor=#000000;fontSize=13;fontStyle=1;verticalAlign=middle;" parent="28" vertex="1">
                    <mxGeometry width="90" height="53" as="geometry">
                        <mxRectangle width="90" height="53" as="alternateBounds"/>
                    </mxGeometry>
                </mxCell>
                <mxCell id="30" value="Θ(1)" style="shape=partialRectangle;html=1;whiteSpace=wrap;connectable=0;fillColor=#C9FDFF;top=0;left=0;bottom=0;right=0;overflow=hidden;strokeColor=#000000;strokeWidth=2;fontColor=#000000;fontSize=13;fontStyle=1;verticalAlign=middle;" parent="28" vertex="1">
                    <mxGeometry x="90" width="90" height="53" as="geometry">
                        <mxRectangle width="90" height="53" as="alternateBounds"/>
                    </mxGeometry>
                </mxCell>
                <mxCell id="31" value="Θ(n)" style="shape=partialRectangle;html=1;whiteSpace=wrap;connectable=0;fillColor=#C9FDFF;top=0;left=0;bottom=0;right=0;overflow=hidden;pointerEvents=1;strokeColor=#000000;strokeWidth=2;fontColor=#000000;fontSize=13;fontStyle=1;verticalAlign=middle;" parent="28" vertex="1">
                    <mxGeometry x="180" width="90" height="53" as="geometry">
                        <mxRectangle width="90" height="53" as="alternateBounds"/>
                    </mxGeometry>
                </mxCell>
                <mxCell id="35" value="getElement" style="rounded=0;whiteSpace=wrap;html=1;strokeColor=#000000;strokeWidth=2;fillColor=#66FFFF;fontColor=#000000;fontSize=13;fontStyle=1;verticalAlign=middle;" parent="1" vertex="1">
                    <mxGeometry x="675" y="40" width="90" height="53" as="geometry"/>
                </mxCell>
                <mxCell id="36" value="Θ(1)" style="rounded=0;whiteSpace=wrap;html=1;strokeColor=#000000;strokeWidth=2;fillColor=#FFFFFF;fontColor=#000000;fontSize=13;fontStyle=1;verticalAlign=middle;" parent="1" vertex="1">
                    <mxGeometry x="675" y="93" width="90" height="54" as="geometry"/>
                </mxCell>
                <mxCell id="37" value="Θ(n)" style="rounded=0;whiteSpace=wrap;html=1;strokeColor=#000000;strokeWidth=2;fillColor=#C9FDFF;fontColor=#000000;fontSize=13;fontStyle=1;verticalAlign=middle;" parent="1" vertex="1">
                    <mxGeometry x="675" y="147" width="90" height="53" as="geometry"/>
                </mxCell>
                <mxCell id="39" value="" style="shape=table;html=1;whiteSpace=wrap;startSize=0;container=1;collapsible=0;childLayout=tableLayout;strokeColor=#000000;strokeWidth=2;fillColor=#FFFFFF;fontColor=#000000;fontSize=13;fontStyle=1;verticalAlign=middle;" parent="1" vertex="1">
                    <mxGeometry x="135" y="40" width="270" height="160" as="geometry"/>
                </mxCell>
                <mxCell id="40" value="" style="shape=tableRow;horizontal=0;startSize=0;swimlaneHead=0;swimlaneBody=0;top=0;left=0;bottom=0;right=0;collapsible=0;dropTarget=0;fillColor=none;points=[[0,0.5],[1,0.5]];portConstraint=eastwest;strokeColor=#000000;strokeWidth=2;fontColor=#000000;fontSize=13;fontStyle=1;verticalAlign=middle;" parent="39" vertex="1">
                    <mxGeometry width="270" height="53" as="geometry"/>
                </mxCell>
                <mxCell id="41" value="insert" style="shape=partialRectangle;html=1;whiteSpace=wrap;connectable=0;fillColor=#66FFFF;top=0;left=0;bottom=0;right=0;overflow=hidden;strokeColor=#000000;strokeWidth=2;fontColor=#000000;fontSize=13;fontStyle=1;verticalAlign=middle;" parent="40" vertex="1">
                    <mxGeometry width="90" height="53" as="geometry">
                        <mxRectangle width="90" height="53" as="alternateBounds"/>
                    </mxGeometry>
                </mxCell>
                <mxCell id="42" value="push_front" style="shape=partialRectangle;html=1;whiteSpace=wrap;connectable=0;fillColor=#66FFFF;top=0;left=0;bottom=0;right=0;overflow=hidden;strokeColor=#000000;strokeWidth=2;fontColor=#000000;fontSize=13;fontStyle=1;verticalAlign=middle;" parent="40" vertex="1">
                    <mxGeometry x="90" width="90" height="53" as="geometry">
                        <mxRectangle width="90" height="53" as="alternateBounds"/>
                    </mxGeometry>
                </mxCell>
                <mxCell id="43" value="push_back" style="shape=partialRectangle;html=1;whiteSpace=wrap;connectable=0;fillColor=#66FFFF;top=0;left=0;bottom=0;right=0;overflow=hidden;strokeColor=#000000;strokeWidth=2;fontColor=#000000;fontSize=13;fontStyle=1;verticalAlign=middle;" parent="40" vertex="1">
                    <mxGeometry x="180" width="90" height="53" as="geometry">
                        <mxRectangle width="90" height="53" as="alternateBounds"/>
                    </mxGeometry>
                </mxCell>
                <mxCell id="44" value="" style="shape=tableRow;horizontal=0;startSize=0;swimlaneHead=0;swimlaneBody=0;top=0;left=0;bottom=0;right=0;collapsible=0;dropTarget=0;fillColor=none;points=[[0,0.5],[1,0.5]];portConstraint=eastwest;strokeColor=#000000;strokeWidth=2;fontColor=#000000;fontSize=13;fontStyle=1;verticalAlign=middle;" parent="39" vertex="1">
                    <mxGeometry y="53" width="270" height="54" as="geometry"/>
                </mxCell>
                <mxCell id="45" value="Θ(n)" style="shape=partialRectangle;html=1;whiteSpace=wrap;connectable=0;fillColor=none;top=0;left=0;bottom=0;right=0;overflow=hidden;strokeColor=#000000;strokeWidth=2;fontColor=#000000;fontSize=13;fontStyle=1;verticalAlign=middle;" parent="44" vertex="1">
                    <mxGeometry width="90" height="54" as="geometry">
                        <mxRectangle width="90" height="54" as="alternateBounds"/>
                    </mxGeometry>
                </mxCell>
                <mxCell id="46" value="Θ(n)" style="shape=partialRectangle;html=1;whiteSpace=wrap;connectable=0;fillColor=none;top=0;left=0;bottom=0;right=0;overflow=hidden;strokeColor=#000000;strokeWidth=2;fontColor=#000000;fontSize=13;fontStyle=1;verticalAlign=middle;" parent="44" vertex="1">
                    <mxGeometry x="90" width="90" height="54" as="geometry">
                        <mxRectangle width="90" height="54" as="alternateBounds"/>
                    </mxGeometry>
                </mxCell>
                <mxCell id="47" value="Θ(1)*" style="shape=partialRectangle;html=1;whiteSpace=wrap;connectable=0;fillColor=none;top=0;left=0;bottom=0;right=0;overflow=hidden;strokeColor=#000000;strokeWidth=2;fontColor=#000000;fontSize=13;fontStyle=1;verticalAlign=middle;" parent="44" vertex="1">
                    <mxGeometry x="180" width="90" height="54" as="geometry">
                        <mxRectangle width="90" height="54" as="alternateBounds"/>
                    </mxGeometry>
                </mxCell>
                <mxCell id="48" value="" style="shape=tableRow;horizontal=0;startSize=0;swimlaneHead=0;swimlaneBody=0;top=0;left=0;bottom=0;right=0;collapsible=0;dropTarget=0;fillColor=#C9FDFF;points=[[0,0.5],[1,0.5]];portConstraint=eastwest;strokeColor=#000000;strokeWidth=2;fontColor=#000000;fontSize=13;fontStyle=1;verticalAlign=middle;" parent="39" vertex="1">
                    <mxGeometry y="107" width="270" height="53" as="geometry"/>
                </mxCell>
                <mxCell id="49" value="Θ(n)" style="shape=partialRectangle;html=1;whiteSpace=wrap;connectable=0;fillColor=#C9FDFF;top=0;left=0;bottom=0;right=0;overflow=hidden;strokeColor=#000000;strokeWidth=2;fontColor=#000000;fontSize=13;fontStyle=1;verticalAlign=middle;" parent="48" vertex="1">
                    <mxGeometry width="90" height="53" as="geometry">
                        <mxRectangle width="90" height="53" as="alternateBounds"/>
                    </mxGeometry>
                </mxCell>
                <mxCell id="50" value="Θ(1)" style="shape=partialRectangle;html=1;whiteSpace=wrap;connectable=0;fillColor=#C9FDFF;top=0;left=0;bottom=0;right=0;overflow=hidden;strokeColor=#000000;strokeWidth=2;fontColor=#000000;fontSize=13;fontStyle=1;verticalAlign=middle;" parent="48" vertex="1">
                    <mxGeometry x="90" width="90" height="53" as="geometry">
                        <mxRectangle width="90" height="53" as="alternateBounds"/>
                    </mxGeometry>
                </mxCell>
                <mxCell id="51" value="Θ(n)" style="shape=partialRectangle;html=1;whiteSpace=wrap;connectable=0;fillColor=none;top=0;left=0;bottom=0;right=0;overflow=hidden;pointerEvents=1;strokeColor=#000000;strokeWidth=2;fontColor=#000000;fontSize=13;fontStyle=1;verticalAlign=middle;" parent="48" vertex="1">
                    <mxGeometry x="180" width="90" height="53" as="geometry">
                        <mxRectangle width="90" height="53" as="alternateBounds"/>
                    </mxGeometry>
                </mxCell>
                <mxCell id="68" value="Vector" style="rounded=0;whiteSpace=wrap;html=1;strokeColor=#000000;strokeWidth=2;fillColor=#FFFFFF;fontColor=#000000;fontSize=14;fontStyle=1" parent="1" vertex="1">
                    <mxGeometry x="20" y="93" width="115" height="54" as="geometry"/>
                </mxCell>
                <mxCell id="69" value="Singly Linked List (head)" style="rounded=0;whiteSpace=wrap;html=1;strokeColor=#000000;strokeWidth=2;fillColor=#C9FDFF;fontColor=#000000;fontSize=14;fontStyle=1" parent="1" vertex="1">
                    <mxGeometry x="20" y="147" width="115" height="53" as="geometry"/>
                </mxCell>
                <mxCell id="71" value="" style="rounded=0;whiteSpace=wrap;html=1;strokeColor=#000000;strokeWidth=2;fillColor=#66FFFF;fontColor=#000000;fontSize=14;fontStyle=1" parent="1" vertex="1">
                    <mxGeometry x="20" y="40" width="115" height="53" as="geometry"/>
                </mxCell>
                <mxCell id="72" value="" style="shape=table;html=1;whiteSpace=wrap;startSize=0;container=1;collapsible=0;childLayout=tableLayout;strokeColor=#000000;strokeWidth=2;fillColor=#FFFFFF;fontColor=#000000;fontSize=13;fontStyle=1;verticalAlign=middle;" parent="1" vertex="1">
                    <mxGeometry x="135" y="200" width="270" height="160" as="geometry"/>
                </mxCell>
                <mxCell id="73" value="" style="shape=tableRow;horizontal=0;startSize=0;swimlaneHead=0;swimlaneBody=0;top=0;left=0;bottom=0;right=0;collapsible=0;dropTarget=0;fillColor=none;points=[[0,0.5],[1,0.5]];portConstraint=eastwest;strokeColor=#000000;strokeWidth=2;fontColor=#000000;fontSize=13;fontStyle=1;verticalAlign=middle;" parent="72" vertex="1">
                    <mxGeometry width="270" height="53" as="geometry"/>
                </mxCell>
                <mxCell id="74" value="Θ(n)" style="shape=partialRectangle;html=1;whiteSpace=wrap;connectable=0;fillColor=none;top=0;left=0;bottom=0;right=0;overflow=hidden;strokeColor=#000000;strokeWidth=2;fontColor=#000000;fontSize=13;fontStyle=1;verticalAlign=middle;" parent="73" vertex="1">
                    <mxGeometry width="90" height="53" as="geometry">
                        <mxRectangle width="90" height="53" as="alternateBounds"/>
                    </mxGeometry>
                </mxCell>
                <mxCell id="75" value="Θ(1)" style="shape=partialRectangle;html=1;whiteSpace=wrap;connectable=0;fillColor=none;top=0;left=0;bottom=0;right=0;overflow=hidden;strokeColor=#000000;strokeWidth=2;fontColor=#000000;fontSize=13;fontStyle=1;verticalAlign=middle;" parent="73" vertex="1">
                    <mxGeometry x="90" width="90" height="53" as="geometry">
                        <mxRectangle width="90" height="53" as="alternateBounds"/>
                    </mxGeometry>
                </mxCell>
                <mxCell id="76" value="Θ(1)" style="shape=partialRectangle;html=1;whiteSpace=wrap;connectable=0;fillColor=none;top=0;left=0;bottom=0;right=0;overflow=hidden;strokeColor=#000000;strokeWidth=2;fontColor=#000000;fontSize=13;fontStyle=1;verticalAlign=middle;" parent="73" vertex="1">
                    <mxGeometry x="180" width="90" height="53" as="geometry">
                        <mxRectangle width="90" height="53" as="alternateBounds"/>
                    </mxGeometry>
                </mxCell>
                <mxCell id="77" value="" style="shape=tableRow;horizontal=0;startSize=0;swimlaneHead=0;swimlaneBody=0;top=0;left=0;bottom=0;right=0;collapsible=0;dropTarget=0;fillColor=none;points=[[0,0.5],[1,0.5]];portConstraint=eastwest;strokeColor=#000000;strokeWidth=2;fontColor=#000000;fontSize=13;fontStyle=1;verticalAlign=middle;" parent="72" vertex="1">
                    <mxGeometry y="53" width="270" height="54" as="geometry"/>
                </mxCell>
                <mxCell id="78" value="Θ(n)" style="shape=partialRectangle;html=1;whiteSpace=wrap;connectable=0;fillColor=#C9FDFF;top=0;left=0;bottom=0;right=0;overflow=hidden;strokeColor=#000000;strokeWidth=2;fontColor=#000000;fontSize=13;fontStyle=1;verticalAlign=middle;" parent="77" vertex="1">
                    <mxGeometry width="90" height="54" as="geometry">
                        <mxRectangle width="90" height="54" as="alternateBounds"/>
                    </mxGeometry>
                </mxCell>
                <mxCell id="79" value="Θ(1)" style="shape=partialRectangle;html=1;whiteSpace=wrap;connectable=0;fillColor=#C9FDFF;top=0;left=0;bottom=0;right=0;overflow=hidden;strokeColor=#000000;strokeWidth=2;fontColor=#000000;fontSize=13;fontStyle=1;verticalAlign=middle;" parent="77" vertex="1">
                    <mxGeometry x="90" width="90" height="54" as="geometry">
                        <mxRectangle width="90" height="54" as="alternateBounds"/>
                    </mxGeometry>
                </mxCell>
                <mxCell id="80" value="Θ(n)" style="shape=partialRectangle;html=1;whiteSpace=wrap;connectable=0;fillColor=#C9FDFF;top=0;left=0;bottom=0;right=0;overflow=hidden;strokeColor=#000000;strokeWidth=2;fontColor=#000000;fontSize=13;fontStyle=1;verticalAlign=middle;" parent="77" vertex="1">
                    <mxGeometry x="180" width="90" height="54" as="geometry">
                        <mxRectangle width="90" height="54" as="alternateBounds"/>
                    </mxGeometry>
                </mxCell>
                <mxCell id="81" value="" style="shape=tableRow;horizontal=0;startSize=0;swimlaneHead=0;swimlaneBody=0;top=0;left=0;bottom=0;right=0;collapsible=0;dropTarget=0;fillColor=none;points=[[0,0.5],[1,0.5]];portConstraint=eastwest;strokeColor=#000000;strokeWidth=2;fontColor=#000000;fontSize=13;fontStyle=1;verticalAlign=middle;" parent="72" vertex="1">
                    <mxGeometry y="107" width="270" height="53" as="geometry"/>
                </mxCell>
                <mxCell id="82" value="Θ(n)" style="shape=partialRectangle;html=1;whiteSpace=wrap;connectable=0;fillColor=none;top=0;left=0;bottom=0;right=0;overflow=hidden;strokeColor=#000000;strokeWidth=2;fontColor=#000000;fontSize=13;fontStyle=1;verticalAlign=middle;" parent="81" vertex="1">
                    <mxGeometry width="90" height="53" as="geometry">
                        <mxRectangle width="90" height="53" as="alternateBounds"/>
                    </mxGeometry>
                </mxCell>
                <mxCell id="83" value="Θ(1)" style="shape=partialRectangle;html=1;whiteSpace=wrap;connectable=0;fillColor=none;top=0;left=0;bottom=0;right=0;overflow=hidden;strokeColor=#000000;strokeWidth=2;fontColor=#000000;fontSize=13;fontStyle=1;verticalAlign=middle;" parent="81" vertex="1">
                    <mxGeometry x="90" width="90" height="53" as="geometry">
                        <mxRectangle width="90" height="53" as="alternateBounds"/>
                    </mxGeometry>
                </mxCell>
                <mxCell id="84" value="Θ(1)" style="shape=partialRectangle;html=1;whiteSpace=wrap;connectable=0;fillColor=none;top=0;left=0;bottom=0;right=0;overflow=hidden;pointerEvents=1;strokeColor=#000000;strokeWidth=2;fontColor=#000000;fontSize=13;fontStyle=1;verticalAlign=middle;" parent="81" vertex="1">
                    <mxGeometry x="180" width="90" height="53" as="geometry">
                        <mxRectangle width="90" height="53" as="alternateBounds"/>
                    </mxGeometry>
                </mxCell>
                <mxCell id="85" value="" style="shape=table;html=1;whiteSpace=wrap;startSize=0;container=1;collapsible=0;childLayout=tableLayout;strokeColor=#000000;strokeWidth=2;fillColor=#FFFFFF;fontColor=#000000;fontSize=13;fontStyle=1;verticalAlign=middle;" parent="1" vertex="1">
                    <mxGeometry x="405" y="200" width="270" height="160" as="geometry"/>
                </mxCell>
                <mxCell id="86" value="" style="shape=tableRow;horizontal=0;startSize=0;swimlaneHead=0;swimlaneBody=0;top=0;left=0;bottom=0;right=0;collapsible=0;dropTarget=0;fillColor=none;points=[[0,0.5],[1,0.5]];portConstraint=eastwest;strokeColor=#000000;strokeWidth=2;fontColor=#000000;fontSize=13;fontStyle=1;verticalAlign=middle;" parent="85" vertex="1">
                    <mxGeometry width="270" height="53" as="geometry"/>
                </mxCell>
                <mxCell id="87" value="Θ(n)" style="shape=partialRectangle;html=1;whiteSpace=wrap;connectable=0;fillColor=none;top=0;left=0;bottom=0;right=0;overflow=hidden;strokeColor=#000000;strokeWidth=2;fontColor=#000000;fontSize=13;fontStyle=1;verticalAlign=middle;" parent="86" vertex="1">
                    <mxGeometry width="90" height="53" as="geometry">
                        <mxRectangle width="90" height="53" as="alternateBounds"/>
                    </mxGeometry>
                </mxCell>
                <mxCell id="88" value="Θ(1)" style="shape=partialRectangle;html=1;whiteSpace=wrap;connectable=0;fillColor=none;top=0;left=0;bottom=0;right=0;overflow=hidden;strokeColor=#000000;strokeWidth=2;fontColor=#000000;fontSize=13;fontStyle=1;verticalAlign=middle;" parent="86" vertex="1">
                    <mxGeometry x="90" width="90" height="53" as="geometry">
                        <mxRectangle width="90" height="53" as="alternateBounds"/>
                    </mxGeometry>
                </mxCell>
                <mxCell id="89" value="Θ(n)" style="shape=partialRectangle;html=1;whiteSpace=wrap;connectable=0;fillColor=none;top=0;left=0;bottom=0;right=0;overflow=hidden;strokeColor=#000000;strokeWidth=2;fontColor=#000000;fontSize=13;fontStyle=1;verticalAlign=middle;" parent="86" vertex="1">
                    <mxGeometry x="180" width="90" height="53" as="geometry">
                        <mxRectangle width="90" height="53" as="alternateBounds"/>
                    </mxGeometry>
                </mxCell>
                <mxCell id="90" value="" style="shape=tableRow;horizontal=0;startSize=0;swimlaneHead=0;swimlaneBody=0;top=0;left=0;bottom=0;right=0;collapsible=0;dropTarget=0;fillColor=none;points=[[0,0.5],[1,0.5]];portConstraint=eastwest;strokeColor=#000000;strokeWidth=2;fontColor=#000000;fontSize=13;fontStyle=1;verticalAlign=middle;" parent="85" vertex="1">
                    <mxGeometry y="53" width="270" height="54" as="geometry"/>
                </mxCell>
                <mxCell id="91" value="Θ(n)" style="shape=partialRectangle;html=1;whiteSpace=wrap;connectable=0;fillColor=#C9FDFF;top=0;left=0;bottom=0;right=0;overflow=hidden;strokeColor=#000000;strokeWidth=2;fontColor=#000000;fontSize=13;fontStyle=1;verticalAlign=middle;" parent="90" vertex="1">
                    <mxGeometry width="90" height="54" as="geometry">
                        <mxRectangle width="90" height="54" as="alternateBounds"/>
                    </mxGeometry>
                </mxCell>
                <mxCell id="92" value="Θ(1)" style="shape=partialRectangle;html=1;whiteSpace=wrap;connectable=0;fillColor=#C9FDFF;top=0;left=0;bottom=0;right=0;overflow=hidden;strokeColor=#000000;strokeWidth=2;fontColor=#000000;fontSize=13;fontStyle=1;verticalAlign=middle;" parent="90" vertex="1">
                    <mxGeometry x="90" width="90" height="54" as="geometry">
                        <mxRectangle width="90" height="54" as="alternateBounds"/>
                    </mxGeometry>
                </mxCell>
                <mxCell id="93" value="Θ(n)" style="shape=partialRectangle;html=1;whiteSpace=wrap;connectable=0;fillColor=#C9FDFF;top=0;left=0;bottom=0;right=0;overflow=hidden;strokeColor=#000000;strokeWidth=2;fontColor=#000000;fontSize=13;fontStyle=1;verticalAlign=middle;gradientColor=none;" parent="90" vertex="1">
                    <mxGeometry x="180" width="90" height="54" as="geometry">
                        <mxRectangle width="90" height="54" as="alternateBounds"/>
                    </mxGeometry>
                </mxCell>
                <mxCell id="94" value="" style="shape=tableRow;horizontal=0;startSize=0;swimlaneHead=0;swimlaneBody=0;top=0;left=0;bottom=0;right=0;collapsible=0;dropTarget=0;fillColor=none;points=[[0,0.5],[1,0.5]];portConstraint=eastwest;strokeColor=#000000;strokeWidth=2;fontColor=#000000;fontSize=13;fontStyle=1;verticalAlign=middle;" parent="85" vertex="1">
                    <mxGeometry y="107" width="270" height="53" as="geometry"/>
                </mxCell>
                <mxCell id="95" value="Θ(n)" style="shape=partialRectangle;html=1;whiteSpace=wrap;connectable=0;fillColor=none;top=0;left=0;bottom=0;right=0;overflow=hidden;strokeColor=#000000;strokeWidth=2;fontColor=#000000;fontSize=13;fontStyle=1;verticalAlign=middle;" parent="94" vertex="1">
                    <mxGeometry width="90" height="53" as="geometry">
                        <mxRectangle width="90" height="53" as="alternateBounds"/>
                    </mxGeometry>
                </mxCell>
                <mxCell id="96" value="Θ(1)" style="shape=partialRectangle;html=1;whiteSpace=wrap;connectable=0;fillColor=none;top=0;left=0;bottom=0;right=0;overflow=hidden;strokeColor=#000000;strokeWidth=2;fontColor=#000000;fontSize=13;fontStyle=1;verticalAlign=middle;" parent="94" vertex="1">
                    <mxGeometry x="90" width="90" height="53" as="geometry">
                        <mxRectangle width="90" height="53" as="alternateBounds"/>
                    </mxGeometry>
                </mxCell>
                <mxCell id="97" value="Θ(1)" style="shape=partialRectangle;html=1;whiteSpace=wrap;connectable=0;fillColor=none;top=0;left=0;bottom=0;right=0;overflow=hidden;pointerEvents=1;strokeColor=#000000;strokeWidth=2;fontColor=#000000;fontSize=13;fontStyle=1;verticalAlign=middle;" parent="94" vertex="1">
                    <mxGeometry x="180" width="90" height="53" as="geometry">
                        <mxRectangle width="90" height="53" as="alternateBounds"/>
                    </mxGeometry>
                </mxCell>
                <mxCell id="98" value="Θ(n)" style="rounded=0;whiteSpace=wrap;html=1;strokeColor=#000000;strokeWidth=2;fillColor=#FFFFFF;fontColor=#000000;fontSize=13;fontStyle=1;verticalAlign=middle;" parent="1" vertex="1">
                    <mxGeometry x="675" y="200" width="90" height="53" as="geometry"/>
                </mxCell>
                <mxCell id="99" value="Θ(n)" style="rounded=0;whiteSpace=wrap;html=1;strokeColor=#000000;strokeWidth=2;fillColor=#C9FDFF;fontColor=#000000;fontSize=13;fontStyle=1;verticalAlign=middle;" parent="1" vertex="1">
                    <mxGeometry x="675" y="253" width="90" height="54" as="geometry"/>
                </mxCell>
                <mxCell id="100" value="Θ(n)" style="rounded=0;whiteSpace=wrap;html=1;strokeColor=#000000;strokeWidth=2;fillColor=#FFFFFF;fontColor=#000000;fontSize=13;fontStyle=1;verticalAlign=middle;" parent="1" vertex="1">
                    <mxGeometry x="675" y="307" width="90" height="53" as="geometry"/>
                </mxCell>
                <mxCell id="101" value="Singly Linked List (head, tail)" style="rounded=0;whiteSpace=wrap;html=1;strokeColor=#000000;strokeWidth=2;fillColor=#FFFFFF;fontColor=#000000;fontSize=14;fontStyle=1" parent="1" vertex="1">
                    <mxGeometry x="20" y="200" width="115" height="53" as="geometry"/>
                </mxCell>
                <mxCell id="102" value="Doubly Linked List (head)" style="rounded=0;whiteSpace=wrap;html=1;strokeColor=#000000;strokeWidth=2;fillColor=#C9FDFF;fontColor=#000000;fontSize=14;fontStyle=1" parent="1" vertex="1">
                    <mxGeometry x="20" y="253" width="115" height="54" as="geometry"/>
                </mxCell>
                <mxCell id="103" value="Doubly Linked List (head, tail)" style="rounded=0;whiteSpace=wrap;html=1;strokeColor=#000000;strokeWidth=2;fillColor=#FFFFFF;fontColor=#000000;fontSize=14;fontStyle=1" parent="1" vertex="1">
                    <mxGeometry x="20" y="307" width="115" height="53" as="geometry"/>
                </mxCell>
                <mxCell id="104" value="" style="endArrow=none;html=1;fontColor=#000000;strokeWidth=2;strokeColor=#000000;" parent="1" edge="1">
                    <mxGeometry width="50" height="50" relative="1" as="geometry">
                        <mxPoint x="225" y="360" as="sourcePoint"/>
                        <mxPoint x="225" y="40" as="targetPoint"/>
                    </mxGeometry>
                </mxCell>
                <mxCell id="105" value="" style="endArrow=none;html=1;fontColor=#000000;strokeWidth=2;strokeColor=#000000;" parent="1" edge="1">
                    <mxGeometry width="50" height="50" relative="1" as="geometry">
                        <mxPoint x="315" y="360" as="sourcePoint"/>
                        <mxPoint x="315" y="40" as="targetPoint"/>
                    </mxGeometry>
                </mxCell>
                <mxCell id="106" value="" style="endArrow=none;html=1;fontColor=#000000;strokeWidth=2;strokeColor=#000000;" parent="1" edge="1">
                    <mxGeometry width="50" height="50" relative="1" as="geometry">
                        <mxPoint x="405" y="360" as="sourcePoint"/>
                        <mxPoint x="405" y="40" as="targetPoint"/>
                    </mxGeometry>
                </mxCell>
                <mxCell id="107" value="" style="endArrow=none;html=1;fontColor=#000000;strokeWidth=2;strokeColor=#000000;" parent="1" edge="1">
                    <mxGeometry width="50" height="50" relative="1" as="geometry">
                        <mxPoint x="495" y="360" as="sourcePoint"/>
                        <mxPoint x="495" y="40" as="targetPoint"/>
                    </mxGeometry>
                </mxCell>
                <mxCell id="108" value="" style="endArrow=none;html=1;fontColor=#000000;strokeWidth=2;strokeColor=#000000;" parent="1" edge="1">
                    <mxGeometry width="50" height="50" relative="1" as="geometry">
                        <mxPoint x="585" y="360" as="sourcePoint"/>
                        <mxPoint x="585" y="40" as="targetPoint"/>
                    </mxGeometry>
                </mxCell>
                <mxCell id="109" value="" style="endArrow=none;html=1;fontColor=#000000;strokeWidth=2;strokeColor=#000000;" parent="1" edge="1">
                    <mxGeometry width="50" height="50" relative="1" as="geometry">
                        <mxPoint x="766" y="93" as="sourcePoint"/>
                        <mxPoint x="135" y="93" as="targetPoint"/>
                    </mxGeometry>
                </mxCell>
                <mxCell id="110" value="" style="endArrow=none;html=1;fontColor=#000000;strokeWidth=2;strokeColor=#000000;" parent="1" edge="1">
                    <mxGeometry width="50" height="50" relative="1" as="geometry">
                        <mxPoint x="765" y="40" as="sourcePoint"/>
                        <mxPoint x="134" y="40" as="targetPoint"/>
                    </mxGeometry>
                </mxCell>
                <mxCell id="111" value="" style="endArrow=none;html=1;fontColor=#000000;strokeWidth=2;strokeColor=#000000;" parent="1" edge="1">
                    <mxGeometry width="50" height="50" relative="1" as="geometry">
                        <mxPoint x="766" y="147" as="sourcePoint"/>
                        <mxPoint x="135" y="147" as="targetPoint"/>
                    </mxGeometry>
                </mxCell>
                <mxCell id="112" value="" style="endArrow=none;html=1;fontColor=#000000;strokeWidth=2;strokeColor=#000000;" parent="1" edge="1">
                    <mxGeometry width="50" height="50" relative="1" as="geometry">
                        <mxPoint x="766" y="253" as="sourcePoint"/>
                        <mxPoint x="135" y="253" as="targetPoint"/>
                    </mxGeometry>
                </mxCell>
                <mxCell id="113" value="" style="endArrow=none;html=1;fontColor=#000000;strokeWidth=2;strokeColor=#000000;" parent="1" edge="1">
                    <mxGeometry width="50" height="50" relative="1" as="geometry">
                        <mxPoint x="765" y="307" as="sourcePoint"/>
                        <mxPoint x="134" y="307" as="targetPoint"/>
                    </mxGeometry>
                </mxCell>
            </root>
        </mxGraphModel>
    </diagram>
</mxfile>